<?xml version="1.0" encoding="utf-8"?>
<!-- Generator: Adobe Illustrator 16.0.0, SVG Export Plug-In . SVG Version: 6.00 Build 0)  -->
<!DOCTYPE svg PUBLIC "-//W3C//DTD SVG 1.1//EN" "http://www.w3.org/Graphics/SVG/1.1/DTD/svg11.dtd">
<svg version="1.1" id="图层_1" xmlns="http://www.w3.org/2000/svg" xmlns:xlink="http://www.w3.org/1999/xlink" x="0px" y="0px"
	 width="643.572px" height="153.666px" viewBox="0 0 643.572 153.666" enable-background="new 0 0 643.572 153.666"
	 xml:space="preserve">
<circle fill="#4FD2C2" cx="79.21" cy="78.666" r="75"/>
<g>
	<defs>
		<circle id="SVGID_1_" cx="79.21" cy="79.666" r="75"/>
	</defs>
	<clipPath id="SVGID_2_">
		<use xlink:href="#SVGID_1_"  overflow="visible"/>
	</clipPath>
	<g clip-path="url(#SVGID_2_)">
		<path fill="#FFFFFF" d="M95.114,170.277L9.712,138.853c0,0,20.462-87.243,50.284-96.109c19.247-5.722,48.325,5.025,57.179,22.367
			C130.896,91.981,95.114,170.277,95.114,170.277z"/>
		<g>
			<path fill="#FF94B0" d="M101.896,103.327c-2.038,9.612-17.068,13.794-33.571,9.335c-16.503-4.457-28.229-15.863-26.192-25.476
				c2.038-9.614,11.115,4.874,27.618,9.332C86.253,100.977,103.933,93.716,101.896,103.327z"/>
			<path fill="#FFFFFF" d="M58.729,92.309c-0.959,3.594-3.365,4.943-5.812,4.111c-2.448-0.834-4.01-3.533-3.05-7.127
				c0.959-3.593,3.721-5.831,6.168-4.999C58.482,85.128,59.688,88.714,58.729,92.309z"/>
			<path fill="#FFFFFF" d="M91.937,114.164c-0.167,3.749-1.98,5.88-4.532,5.735c-2.554-0.147-4.88-2.514-4.711-6.263
				c0.167-3.75,2.373-6.67,4.925-6.523C90.171,107.26,92.104,110.415,91.937,114.164z"/>
		</g>
		<circle fill="#4FD2C2" cx="62.833" cy="70.499" r="10"/>
		<circle fill="#FFFFFF" cx="66.499" cy="70.167" r="5"/>
		<circle fill="#4FD2C2" cx="93.666" cy="79.464" r="10"/>
		<circle fill="#FFFFFF" cx="97.666" cy="79.202" r="5"/>
		<g>
			<path fill="none" stroke="#FFFFFF" stroke-width="6" stroke-miterlimit="10" d="M57,47.664c0,0-1.468-10.743,0.833-16.333"/>
			<circle fill="#FFFFFF" cx="57.833" cy="26.425" r="7.5"/>
		</g>
		<g>
			<path fill="none" stroke="#FFFFFF" stroke-width="6" stroke-miterlimit="10" d="M114.644,65.499c0,0,8.102-6.162,10.751-12.323"
				/>
			<circle fill="#FFFFFF" cx="125.833" cy="48.425" r="7.5"/>
		</g>
	</g>
</g>
<g>
	<path fill="#4FD2C2" d="M210.139,47.416l13.1,3.9l-17.5,35.1l14.3-1.2l-0.1,12.101l-29.6-0.4l0.1-9.1l9.6-19.701l-14.3-0.5v-9.9
		l10.5-29l14.6,2.1l-11.9,27.7l5.7,0.1L210.139,47.416z M186.939,117.016l-0.2-11l33.1-1.6l0.7,11.699L186.939,117.016z
		 M253.639,75.116l-4.2,22.701l-9.6-1.5v23l-14.2,0.4l-0.9-76.001l20.5-0.695l0.1-15.906l15.5-0.398l-0.1,15.8l17.9-0.7l-0.5,76.5
		l-19.5,1.1l-0.6-13.1l6.6-0.801l0.3-13.4l-7.9,2.102L253.639,75.116z M239.839,92.615l5.3-29.099v-10.3h-5.2L239.839,92.615z
		 M265.939,53.216h-5.3v9.4l4.5,23L265.939,53.216z"/>
	<path fill="#4FD2C2" d="M304.238,61.916c-0.467,8.667-0.9,16.167-1.3,22.5c-0.4,6.334-0.9,11.684-1.5,16.051
		c-0.601,4.365-1.385,7.883-2.351,10.549c-0.967,2.666-2.217,4.717-3.75,6.15c-1.534,1.434-3.449,2.365-5.75,2.801
		c-2.3,0.432-5.084,0.582-8.35,0.449l-0.6-15.301l6.1-0.199l1.5-73.7l81.8,0.6l-0.3,31.1L304.238,61.916z M305.038,42.716l-0.3,8.9
		l49.5-1.7l-0.2-8.6L305.038,42.716z M329.838,68.216l-0.5,11.4l36.2-7.5l2.9,12.8l-39.601,6.5l-0.6,16.1l42.1-1.299v11.898
		l-57.5,0.801l0.101-51.2L329.838,68.216z"/>
	<path fill="#4FD2C2" d="M469.038,67.916l-0.399,7.4l-28.4-0.1l-0.2,4.6l21.8-0.4l0.2,24.4c0,2.799-0.284,5.25-0.85,7.35
		c-0.567,2.1-1.7,3.85-3.4,5.25s-4.117,2.434-7.25,3.1c-3.134,0.666-7.234,1-12.3,1l-57.8-0.1l1-39.8l22.899-0.3l-0.1-5.2l-26.8-0.1
		l-1.101-8L469.038,67.916z M379.438,60.316l0.899-12.9l14.4-0.2l-0.2,12.9L379.438,60.316z M395.139,29.516v10.3l-13.2-0.1
		l-0.3-10.1L395.139,29.516z M448.238,113.416l0.1-3.5l-54.1-0.699l-0.1,3.398L448.238,113.416z M394.438,102.717l54.1-0.801v-2.5
		l-23.3-0.301l0.1-12.199l-8-0.1c-0.334,4.268-2.066,7.65-5.199,10.15c-3.135,2.5-7.935,3.648-14.4,3.449l-1.1-8.801l7.899-0.1
		l-0.1-5l-9.5-0.199L394.438,102.717z M414.038,27.316l0.8,37.2l-15.8,0.4l1-37.5L414.038,27.316z M417.838,80.116l7.601-0.1
		l0.1-4.8h-7.3L417.838,80.116z M450.038,39.916l-16.1-0.7l-1.601,3.7l-12.5-0.9l5.2-14.6l14,0.6l-1.899,4.2l28.8,0.8
		c-1.268,5.6-2.567,10.334-3.9,14.2c-1.334,3.867-2.817,7.067-4.45,9.6c-1.634,2.534-3.534,4.45-5.699,5.75
		c-2.168,1.3-4.7,2.167-7.601,2.6c-2.899,0.434-6.25,0.5-10.05,0.2c-3.8-0.3-8.2-0.783-13.2-1.45l0.8-8.1l22.4,1.3L450.038,39.916z
		 M425.838,44.816h12.5l-0.199,9.5l-12.2-0.303L425.838,44.816z M439.639,87.216l-0.301,5.001l9.4-0.5l0.1-4.4L439.639,87.216z"/>
</g>
</svg>
